<mxfile host="app.diagrams.net" modified="2024-06-09T22:57:09.257Z" agent="Mozilla/5.0 (Windows NT 10.0; Win64; x64) AppleWebKit/537.36 (KHTML, like Gecko) Chrome/125.0.0.0 Safari/537.36" etag="RSasQnuu3IRWgBVsgBoq" version="24.5.2" type="github">
  <diagram name="Page-1" id="X3ZoTkCQtNdjKNEKbGWt">
    <mxGraphModel dx="2889" dy="614" grid="1" gridSize="10" guides="1" tooltips="1" connect="1" arrows="1" fold="1" page="1" pageScale="1" pageWidth="827" pageHeight="1169" math="0" shadow="0">
      <root>
        <mxCell id="0" />
        <mxCell id="1" parent="0" />
        <mxCell id="E6vCA-_C3BI9IP7vn3Sj-14" value="" style="rounded=0;whiteSpace=wrap;html=1;strokeWidth=2;" vertex="1" parent="1">
          <mxGeometry x="-760" y="120" width="60" height="80" as="geometry" />
        </mxCell>
        <mxCell id="E6vCA-_C3BI9IP7vn3Sj-19" value="" style="endArrow=none;html=1;rounded=0;exitX=1;exitY=0.25;exitDx=0;exitDy=0;strokeWidth=2;" edge="1" parent="1">
          <mxGeometry width="50" height="50" relative="1" as="geometry">
            <mxPoint x="-770" y="140" as="sourcePoint" />
            <mxPoint x="-760" y="140" as="targetPoint" />
          </mxGeometry>
        </mxCell>
        <mxCell id="E6vCA-_C3BI9IP7vn3Sj-20" value="&lt;font style=&quot;font-size: 10px;&quot; face=&quot;Times New Roman&quot;&gt;&lt;b style=&quot;&quot;&gt;D&lt;/b&gt;&lt;/font&gt;" style="text;html=1;align=center;verticalAlign=middle;whiteSpace=wrap;rounded=0;strokeWidth=2;" vertex="1" parent="1">
          <mxGeometry x="-760" y="135" width="10" height="10" as="geometry" />
        </mxCell>
        <mxCell id="E6vCA-_C3BI9IP7vn3Sj-21" value="&lt;font style=&quot;font-size: 10px;&quot; face=&quot;Times New Roman&quot;&gt;&lt;b style=&quot;&quot;&gt;Q&lt;/b&gt;&lt;/font&gt;" style="text;html=1;align=center;verticalAlign=middle;whiteSpace=wrap;rounded=0;strokeWidth=2;" vertex="1" parent="1">
          <mxGeometry x="-710" y="135" width="10" height="10" as="geometry" />
        </mxCell>
        <mxCell id="E6vCA-_C3BI9IP7vn3Sj-22" value="&lt;font style=&quot;font-size: 8px;&quot; face=&quot;Times New Roman&quot;&gt;&lt;b style=&quot;&quot;&gt;CLK&lt;/b&gt;&lt;/font&gt;" style="text;html=1;align=center;verticalAlign=middle;whiteSpace=wrap;rounded=0;strokeWidth=2;" vertex="1" parent="1">
          <mxGeometry x="-750" y="180" width="20" height="10" as="geometry" />
        </mxCell>
        <mxCell id="E6vCA-_C3BI9IP7vn3Sj-23" value="" style="endArrow=none;html=1;rounded=0;exitX=1;exitY=0.25;exitDx=0;exitDy=0;strokeWidth=2;" edge="1" parent="1">
          <mxGeometry width="50" height="50" relative="1" as="geometry">
            <mxPoint x="-770" y="180" as="sourcePoint" />
            <mxPoint x="-760" y="180" as="targetPoint" />
          </mxGeometry>
        </mxCell>
        <mxCell id="E6vCA-_C3BI9IP7vn3Sj-176" value="" style="rounded=0;whiteSpace=wrap;html=1;strokeWidth=2;" vertex="1" parent="1">
          <mxGeometry x="-760" y="240" width="60" height="80" as="geometry" />
        </mxCell>
        <mxCell id="E6vCA-_C3BI9IP7vn3Sj-179" value="" style="endArrow=none;html=1;rounded=0;exitX=1;exitY=0.25;exitDx=0;exitDy=0;strokeWidth=2;" edge="1" parent="1">
          <mxGeometry width="50" height="50" relative="1" as="geometry">
            <mxPoint x="-770" y="300" as="sourcePoint" />
            <mxPoint x="-760" y="300" as="targetPoint" />
          </mxGeometry>
        </mxCell>
        <mxCell id="E6vCA-_C3BI9IP7vn3Sj-180" value="&lt;font style=&quot;font-size: 10px;&quot; face=&quot;Times New Roman&quot;&gt;&lt;b style=&quot;&quot;&gt;D&lt;/b&gt;&lt;/font&gt;" style="text;html=1;align=center;verticalAlign=middle;whiteSpace=wrap;rounded=0;strokeWidth=2;" vertex="1" parent="1">
          <mxGeometry x="-760" y="300" width="10" height="10" as="geometry" />
        </mxCell>
        <mxCell id="E6vCA-_C3BI9IP7vn3Sj-347" value="" style="edgeStyle=orthogonalEdgeStyle;rounded=0;orthogonalLoop=1;jettySize=auto;html=1;strokeWidth=2;" edge="1" parent="1">
          <mxGeometry relative="1" as="geometry">
            <mxPoint x="-700" y="300" as="sourcePoint" />
            <mxPoint x="-660" y="265" as="targetPoint" />
          </mxGeometry>
        </mxCell>
        <mxCell id="E6vCA-_C3BI9IP7vn3Sj-181" value="&lt;font style=&quot;font-size: 10px;&quot; face=&quot;Times New Roman&quot;&gt;&lt;b style=&quot;&quot;&gt;Q&lt;/b&gt;&lt;/font&gt;" style="text;html=1;align=center;verticalAlign=middle;whiteSpace=wrap;rounded=0;strokeWidth=2;" vertex="1" parent="1">
          <mxGeometry x="-710" y="300" width="10" height="10" as="geometry" />
        </mxCell>
        <mxCell id="E6vCA-_C3BI9IP7vn3Sj-270" value="" style="triangle;whiteSpace=wrap;html=1;strokeWidth=2;" vertex="1" parent="1">
          <mxGeometry x="-760" y="170" width="10" height="20" as="geometry" />
        </mxCell>
        <mxCell id="E6vCA-_C3BI9IP7vn3Sj-271" value="" style="rounded=0;whiteSpace=wrap;html=1;strokeWidth=2;" vertex="1" parent="1">
          <mxGeometry x="-680" y="120" width="60" height="80" as="geometry" />
        </mxCell>
        <mxCell id="E6vCA-_C3BI9IP7vn3Sj-273" value="&lt;font style=&quot;font-size: 10px;&quot; face=&quot;Times New Roman&quot;&gt;&lt;b style=&quot;&quot;&gt;D&lt;/b&gt;&lt;/font&gt;" style="text;html=1;align=center;verticalAlign=middle;whiteSpace=wrap;rounded=0;strokeWidth=2;" vertex="1" parent="1">
          <mxGeometry x="-680" y="135" width="10" height="10" as="geometry" />
        </mxCell>
        <mxCell id="E6vCA-_C3BI9IP7vn3Sj-274" value="&lt;font style=&quot;font-size: 10px;&quot; face=&quot;Times New Roman&quot;&gt;&lt;b style=&quot;&quot;&gt;Q&lt;/b&gt;&lt;/font&gt;" style="text;html=1;align=center;verticalAlign=middle;whiteSpace=wrap;rounded=0;strokeWidth=2;" vertex="1" parent="1">
          <mxGeometry x="-630" y="135" width="10" height="10" as="geometry" />
        </mxCell>
        <mxCell id="E6vCA-_C3BI9IP7vn3Sj-275" value="&lt;font style=&quot;font-size: 8px;&quot; face=&quot;Times New Roman&quot;&gt;&lt;b style=&quot;&quot;&gt;CLK&lt;/b&gt;&lt;/font&gt;" style="text;html=1;align=center;verticalAlign=middle;whiteSpace=wrap;rounded=0;strokeWidth=2;" vertex="1" parent="1">
          <mxGeometry x="-670" y="180" width="20" height="10" as="geometry" />
        </mxCell>
        <mxCell id="E6vCA-_C3BI9IP7vn3Sj-276" value="" style="endArrow=none;html=1;rounded=0;exitX=1;exitY=0.25;exitDx=0;exitDy=0;strokeWidth=2;" edge="1" parent="1">
          <mxGeometry width="50" height="50" relative="1" as="geometry">
            <mxPoint x="-690" y="179.77" as="sourcePoint" />
            <mxPoint x="-680" y="179.77" as="targetPoint" />
          </mxGeometry>
        </mxCell>
        <mxCell id="E6vCA-_C3BI9IP7vn3Sj-278" value="" style="triangle;whiteSpace=wrap;html=1;strokeWidth=2;" vertex="1" parent="1">
          <mxGeometry x="-680" y="170" width="10" height="20" as="geometry" />
        </mxCell>
        <mxCell id="E6vCA-_C3BI9IP7vn3Sj-279" value="" style="endArrow=none;html=1;rounded=0;entryX=0;entryY=0.5;entryDx=0;entryDy=0;strokeWidth=2;" edge="1" parent="1" target="E6vCA-_C3BI9IP7vn3Sj-273">
          <mxGeometry width="50" height="50" relative="1" as="geometry">
            <mxPoint x="-700" y="140" as="sourcePoint" />
            <mxPoint x="-630" y="130" as="targetPoint" />
          </mxGeometry>
        </mxCell>
        <mxCell id="E6vCA-_C3BI9IP7vn3Sj-280" value="" style="rounded=0;whiteSpace=wrap;html=1;strokeWidth=2;" vertex="1" parent="1">
          <mxGeometry x="-600" y="120" width="60" height="80" as="geometry" />
        </mxCell>
        <mxCell id="E6vCA-_C3BI9IP7vn3Sj-281" value="" style="endArrow=none;html=1;rounded=0;exitX=1;exitY=0.5;exitDx=0;exitDy=0;strokeWidth=2;" edge="1" parent="1" source="E6vCA-_C3BI9IP7vn3Sj-274">
          <mxGeometry width="50" height="50" relative="1" as="geometry">
            <mxPoint x="-610" y="140" as="sourcePoint" />
            <mxPoint x="-600" y="140" as="targetPoint" />
          </mxGeometry>
        </mxCell>
        <mxCell id="E6vCA-_C3BI9IP7vn3Sj-282" value="&lt;font style=&quot;font-size: 10px;&quot; face=&quot;Times New Roman&quot;&gt;&lt;b style=&quot;&quot;&gt;D&lt;/b&gt;&lt;/font&gt;" style="text;html=1;align=center;verticalAlign=middle;whiteSpace=wrap;rounded=0;strokeWidth=2;" vertex="1" parent="1">
          <mxGeometry x="-600" y="135" width="10" height="10" as="geometry" />
        </mxCell>
        <mxCell id="E6vCA-_C3BI9IP7vn3Sj-283" value="&lt;font style=&quot;font-size: 10px;&quot; face=&quot;Times New Roman&quot;&gt;&lt;b style=&quot;&quot;&gt;Q&lt;/b&gt;&lt;/font&gt;" style="text;html=1;align=center;verticalAlign=middle;whiteSpace=wrap;rounded=0;strokeWidth=2;" vertex="1" parent="1">
          <mxGeometry x="-550" y="135" width="10" height="10" as="geometry" />
        </mxCell>
        <mxCell id="E6vCA-_C3BI9IP7vn3Sj-284" value="&lt;font style=&quot;font-size: 8px;&quot; face=&quot;Times New Roman&quot;&gt;&lt;b style=&quot;&quot;&gt;CLK&lt;/b&gt;&lt;/font&gt;" style="text;html=1;align=center;verticalAlign=middle;whiteSpace=wrap;rounded=0;strokeWidth=2;" vertex="1" parent="1">
          <mxGeometry x="-590" y="180" width="20" height="10" as="geometry" />
        </mxCell>
        <mxCell id="E6vCA-_C3BI9IP7vn3Sj-285" value="" style="endArrow=none;html=1;rounded=0;exitX=1;exitY=0.25;exitDx=0;exitDy=0;strokeWidth=2;" edge="1" parent="1">
          <mxGeometry width="50" height="50" relative="1" as="geometry">
            <mxPoint x="-610" y="180" as="sourcePoint" />
            <mxPoint x="-600" y="180" as="targetPoint" />
          </mxGeometry>
        </mxCell>
        <mxCell id="E6vCA-_C3BI9IP7vn3Sj-286" value="" style="triangle;whiteSpace=wrap;html=1;strokeWidth=2;" vertex="1" parent="1">
          <mxGeometry x="-600" y="170" width="10" height="20" as="geometry" />
        </mxCell>
        <mxCell id="E6vCA-_C3BI9IP7vn3Sj-287" value="" style="rounded=0;whiteSpace=wrap;html=1;strokeWidth=2;" vertex="1" parent="1">
          <mxGeometry x="-520" y="120" width="60" height="80" as="geometry" />
        </mxCell>
        <mxCell id="E6vCA-_C3BI9IP7vn3Sj-288" value="&lt;font style=&quot;font-size: 10px;&quot; face=&quot;Times New Roman&quot;&gt;&lt;b style=&quot;&quot;&gt;D&lt;/b&gt;&lt;/font&gt;" style="text;html=1;align=center;verticalAlign=middle;whiteSpace=wrap;rounded=0;strokeWidth=2;" vertex="1" parent="1">
          <mxGeometry x="-520" y="135" width="10" height="10" as="geometry" />
        </mxCell>
        <mxCell id="E6vCA-_C3BI9IP7vn3Sj-289" value="&lt;font style=&quot;font-size: 10px;&quot; face=&quot;Times New Roman&quot;&gt;&lt;b style=&quot;&quot;&gt;Q&lt;/b&gt;&lt;/font&gt;" style="text;html=1;align=center;verticalAlign=middle;whiteSpace=wrap;rounded=0;strokeWidth=2;" vertex="1" parent="1">
          <mxGeometry x="-470" y="135" width="10" height="10" as="geometry" />
        </mxCell>
        <mxCell id="E6vCA-_C3BI9IP7vn3Sj-290" value="&lt;font style=&quot;font-size: 8px;&quot; face=&quot;Times New Roman&quot;&gt;&lt;b style=&quot;&quot;&gt;CLK&lt;/b&gt;&lt;/font&gt;" style="text;html=1;align=center;verticalAlign=middle;whiteSpace=wrap;rounded=0;strokeWidth=2;" vertex="1" parent="1">
          <mxGeometry x="-510" y="180" width="20" height="10" as="geometry" />
        </mxCell>
        <mxCell id="E6vCA-_C3BI9IP7vn3Sj-291" value="" style="endArrow=none;html=1;rounded=0;exitX=1;exitY=0.25;exitDx=0;exitDy=0;strokeWidth=2;" edge="1" parent="1">
          <mxGeometry width="50" height="50" relative="1" as="geometry">
            <mxPoint x="-530" y="179.77" as="sourcePoint" />
            <mxPoint x="-520" y="179.77" as="targetPoint" />
          </mxGeometry>
        </mxCell>
        <mxCell id="E6vCA-_C3BI9IP7vn3Sj-292" value="" style="triangle;whiteSpace=wrap;html=1;strokeWidth=2;" vertex="1" parent="1">
          <mxGeometry x="-520" y="170" width="10" height="20" as="geometry" />
        </mxCell>
        <mxCell id="E6vCA-_C3BI9IP7vn3Sj-293" value="" style="endArrow=none;html=1;rounded=0;entryX=0;entryY=0.5;entryDx=0;entryDy=0;strokeWidth=2;" edge="1" parent="1" target="E6vCA-_C3BI9IP7vn3Sj-288">
          <mxGeometry width="50" height="50" relative="1" as="geometry">
            <mxPoint x="-540" y="140" as="sourcePoint" />
            <mxPoint x="-470" y="130" as="targetPoint" />
          </mxGeometry>
        </mxCell>
        <mxCell id="E6vCA-_C3BI9IP7vn3Sj-294" value="" style="rounded=0;whiteSpace=wrap;html=1;strokeWidth=2;" vertex="1" parent="1">
          <mxGeometry x="-440" y="120" width="60" height="80" as="geometry" />
        </mxCell>
        <mxCell id="E6vCA-_C3BI9IP7vn3Sj-295" value="" style="endArrow=none;html=1;rounded=0;exitX=1;exitY=0.5;exitDx=0;exitDy=0;strokeWidth=2;" edge="1" parent="1" source="E6vCA-_C3BI9IP7vn3Sj-289">
          <mxGeometry width="50" height="50" relative="1" as="geometry">
            <mxPoint x="-450" y="140" as="sourcePoint" />
            <mxPoint x="-440" y="140" as="targetPoint" />
          </mxGeometry>
        </mxCell>
        <mxCell id="E6vCA-_C3BI9IP7vn3Sj-296" value="&lt;font style=&quot;font-size: 10px;&quot; face=&quot;Times New Roman&quot;&gt;&lt;b style=&quot;&quot;&gt;D&lt;/b&gt;&lt;/font&gt;" style="text;html=1;align=center;verticalAlign=middle;whiteSpace=wrap;rounded=0;strokeWidth=2;" vertex="1" parent="1">
          <mxGeometry x="-440" y="135" width="10" height="10" as="geometry" />
        </mxCell>
        <mxCell id="E6vCA-_C3BI9IP7vn3Sj-297" value="&lt;font style=&quot;font-size: 10px;&quot; face=&quot;Times New Roman&quot;&gt;&lt;b style=&quot;&quot;&gt;Q&lt;/b&gt;&lt;/font&gt;" style="text;html=1;align=center;verticalAlign=middle;whiteSpace=wrap;rounded=0;strokeWidth=2;" vertex="1" parent="1">
          <mxGeometry x="-390" y="135" width="10" height="10" as="geometry" />
        </mxCell>
        <mxCell id="E6vCA-_C3BI9IP7vn3Sj-298" value="&lt;font style=&quot;font-size: 8px;&quot; face=&quot;Times New Roman&quot;&gt;&lt;b style=&quot;&quot;&gt;CLK&lt;/b&gt;&lt;/font&gt;" style="text;html=1;align=center;verticalAlign=middle;whiteSpace=wrap;rounded=0;strokeWidth=2;" vertex="1" parent="1">
          <mxGeometry x="-430" y="180" width="20" height="10" as="geometry" />
        </mxCell>
        <mxCell id="E6vCA-_C3BI9IP7vn3Sj-299" value="" style="endArrow=none;html=1;rounded=0;exitX=1;exitY=0.25;exitDx=0;exitDy=0;strokeWidth=2;" edge="1" parent="1">
          <mxGeometry width="50" height="50" relative="1" as="geometry">
            <mxPoint x="-450" y="180" as="sourcePoint" />
            <mxPoint x="-440" y="180" as="targetPoint" />
          </mxGeometry>
        </mxCell>
        <mxCell id="E6vCA-_C3BI9IP7vn3Sj-300" value="" style="triangle;whiteSpace=wrap;html=1;strokeWidth=2;" vertex="1" parent="1">
          <mxGeometry x="-440" y="170" width="10" height="20" as="geometry" />
        </mxCell>
        <mxCell id="E6vCA-_C3BI9IP7vn3Sj-301" value="" style="rounded=0;whiteSpace=wrap;html=1;strokeWidth=2;" vertex="1" parent="1">
          <mxGeometry x="-360" y="120" width="60" height="80" as="geometry" />
        </mxCell>
        <mxCell id="E6vCA-_C3BI9IP7vn3Sj-302" value="&lt;font style=&quot;font-size: 10px;&quot; face=&quot;Times New Roman&quot;&gt;&lt;b style=&quot;&quot;&gt;D&lt;/b&gt;&lt;/font&gt;" style="text;html=1;align=center;verticalAlign=middle;whiteSpace=wrap;rounded=0;strokeWidth=2;" vertex="1" parent="1">
          <mxGeometry x="-360" y="135" width="10" height="10" as="geometry" />
        </mxCell>
        <mxCell id="E6vCA-_C3BI9IP7vn3Sj-303" value="&lt;font style=&quot;font-size: 10px;&quot; face=&quot;Times New Roman&quot;&gt;&lt;b style=&quot;&quot;&gt;Q&lt;/b&gt;&lt;/font&gt;" style="text;html=1;align=center;verticalAlign=middle;whiteSpace=wrap;rounded=0;strokeWidth=2;" vertex="1" parent="1">
          <mxGeometry x="-310" y="135" width="10" height="10" as="geometry" />
        </mxCell>
        <mxCell id="E6vCA-_C3BI9IP7vn3Sj-304" value="&lt;font style=&quot;font-size: 8px;&quot; face=&quot;Times New Roman&quot;&gt;&lt;b style=&quot;&quot;&gt;CLK&lt;/b&gt;&lt;/font&gt;" style="text;html=1;align=center;verticalAlign=middle;whiteSpace=wrap;rounded=0;strokeWidth=2;" vertex="1" parent="1">
          <mxGeometry x="-350" y="180" width="20" height="10" as="geometry" />
        </mxCell>
        <mxCell id="E6vCA-_C3BI9IP7vn3Sj-305" value="" style="endArrow=none;html=1;rounded=0;exitX=1;exitY=0.25;exitDx=0;exitDy=0;strokeWidth=2;" edge="1" parent="1">
          <mxGeometry width="50" height="50" relative="1" as="geometry">
            <mxPoint x="-370" y="179.77" as="sourcePoint" />
            <mxPoint x="-360" y="179.77" as="targetPoint" />
          </mxGeometry>
        </mxCell>
        <mxCell id="E6vCA-_C3BI9IP7vn3Sj-306" value="" style="triangle;whiteSpace=wrap;html=1;strokeWidth=2;" vertex="1" parent="1">
          <mxGeometry x="-360" y="170" width="10" height="20" as="geometry" />
        </mxCell>
        <mxCell id="E6vCA-_C3BI9IP7vn3Sj-307" value="" style="endArrow=none;html=1;rounded=0;entryX=0;entryY=0.5;entryDx=0;entryDy=0;strokeWidth=2;" edge="1" parent="1" target="E6vCA-_C3BI9IP7vn3Sj-302">
          <mxGeometry width="50" height="50" relative="1" as="geometry">
            <mxPoint x="-380" y="140" as="sourcePoint" />
            <mxPoint x="-310" y="130" as="targetPoint" />
          </mxGeometry>
        </mxCell>
        <mxCell id="E6vCA-_C3BI9IP7vn3Sj-308" value="" style="rounded=0;whiteSpace=wrap;html=1;strokeWidth=2;" vertex="1" parent="1">
          <mxGeometry x="-280" y="120" width="60" height="80" as="geometry" />
        </mxCell>
        <mxCell id="E6vCA-_C3BI9IP7vn3Sj-309" value="" style="endArrow=none;html=1;rounded=0;exitX=1;exitY=0.5;exitDx=0;exitDy=0;strokeWidth=2;" edge="1" parent="1" source="E6vCA-_C3BI9IP7vn3Sj-303">
          <mxGeometry width="50" height="50" relative="1" as="geometry">
            <mxPoint x="-290" y="140" as="sourcePoint" />
            <mxPoint x="-280" y="140" as="targetPoint" />
          </mxGeometry>
        </mxCell>
        <mxCell id="E6vCA-_C3BI9IP7vn3Sj-310" value="&lt;font style=&quot;font-size: 10px;&quot; face=&quot;Times New Roman&quot;&gt;&lt;b style=&quot;&quot;&gt;D&lt;/b&gt;&lt;/font&gt;" style="text;html=1;align=center;verticalAlign=middle;whiteSpace=wrap;rounded=0;strokeWidth=2;" vertex="1" parent="1">
          <mxGeometry x="-280" y="135" width="10" height="10" as="geometry" />
        </mxCell>
        <mxCell id="E6vCA-_C3BI9IP7vn3Sj-311" value="&lt;font style=&quot;font-size: 10px;&quot; face=&quot;Times New Roman&quot;&gt;&lt;b style=&quot;&quot;&gt;Q&lt;/b&gt;&lt;/font&gt;" style="text;html=1;align=center;verticalAlign=middle;whiteSpace=wrap;rounded=0;strokeWidth=2;" vertex="1" parent="1">
          <mxGeometry x="-230" y="135" width="10" height="10" as="geometry" />
        </mxCell>
        <mxCell id="E6vCA-_C3BI9IP7vn3Sj-312" value="&lt;font style=&quot;font-size: 8px;&quot; face=&quot;Times New Roman&quot;&gt;&lt;b style=&quot;&quot;&gt;CLK&lt;/b&gt;&lt;/font&gt;" style="text;html=1;align=center;verticalAlign=middle;whiteSpace=wrap;rounded=0;strokeWidth=2;" vertex="1" parent="1">
          <mxGeometry x="-270" y="180" width="20" height="10" as="geometry" />
        </mxCell>
        <mxCell id="E6vCA-_C3BI9IP7vn3Sj-313" value="" style="endArrow=none;html=1;rounded=0;exitX=1;exitY=0.25;exitDx=0;exitDy=0;strokeWidth=2;" edge="1" parent="1">
          <mxGeometry width="50" height="50" relative="1" as="geometry">
            <mxPoint x="-290" y="180" as="sourcePoint" />
            <mxPoint x="-280" y="180" as="targetPoint" />
          </mxGeometry>
        </mxCell>
        <mxCell id="E6vCA-_C3BI9IP7vn3Sj-314" value="" style="triangle;whiteSpace=wrap;html=1;strokeWidth=2;" vertex="1" parent="1">
          <mxGeometry x="-280" y="170" width="10" height="20" as="geometry" />
        </mxCell>
        <mxCell id="E6vCA-_C3BI9IP7vn3Sj-315" value="" style="rounded=0;whiteSpace=wrap;html=1;strokeWidth=2;" vertex="1" parent="1">
          <mxGeometry x="-200" y="120" width="60" height="80" as="geometry" />
        </mxCell>
        <mxCell id="E6vCA-_C3BI9IP7vn3Sj-316" value="&lt;font style=&quot;font-size: 10px;&quot; face=&quot;Times New Roman&quot;&gt;&lt;b style=&quot;&quot;&gt;D&lt;/b&gt;&lt;/font&gt;" style="text;html=1;align=center;verticalAlign=middle;whiteSpace=wrap;rounded=0;strokeWidth=2;" vertex="1" parent="1">
          <mxGeometry x="-200" y="135" width="10" height="10" as="geometry" />
        </mxCell>
        <mxCell id="E6vCA-_C3BI9IP7vn3Sj-317" value="&lt;font style=&quot;font-size: 10px;&quot; face=&quot;Times New Roman&quot;&gt;&lt;b style=&quot;&quot;&gt;Q&lt;/b&gt;&lt;/font&gt;" style="text;html=1;align=center;verticalAlign=middle;whiteSpace=wrap;rounded=0;strokeWidth=2;" vertex="1" parent="1">
          <mxGeometry x="-150" y="135" width="10" height="10" as="geometry" />
        </mxCell>
        <mxCell id="E6vCA-_C3BI9IP7vn3Sj-318" value="&lt;font style=&quot;font-size: 8px;&quot; face=&quot;Times New Roman&quot;&gt;&lt;b style=&quot;&quot;&gt;CLK&lt;/b&gt;&lt;/font&gt;" style="text;html=1;align=center;verticalAlign=middle;whiteSpace=wrap;rounded=0;strokeWidth=2;" vertex="1" parent="1">
          <mxGeometry x="-190" y="180" width="20" height="10" as="geometry" />
        </mxCell>
        <mxCell id="E6vCA-_C3BI9IP7vn3Sj-319" value="" style="endArrow=none;html=1;rounded=0;exitX=1;exitY=0.25;exitDx=0;exitDy=0;strokeWidth=2;" edge="1" parent="1">
          <mxGeometry width="50" height="50" relative="1" as="geometry">
            <mxPoint x="-210" y="179.77" as="sourcePoint" />
            <mxPoint x="-200" y="179.77" as="targetPoint" />
          </mxGeometry>
        </mxCell>
        <mxCell id="E6vCA-_C3BI9IP7vn3Sj-320" value="" style="triangle;whiteSpace=wrap;html=1;strokeWidth=2;" vertex="1" parent="1">
          <mxGeometry x="-200" y="170" width="10" height="20" as="geometry" />
        </mxCell>
        <mxCell id="E6vCA-_C3BI9IP7vn3Sj-321" value="" style="endArrow=none;html=1;rounded=0;entryX=0;entryY=0.5;entryDx=0;entryDy=0;strokeWidth=2;" edge="1" parent="1" target="E6vCA-_C3BI9IP7vn3Sj-316">
          <mxGeometry width="50" height="50" relative="1" as="geometry">
            <mxPoint x="-220" y="140" as="sourcePoint" />
            <mxPoint x="-150" y="130" as="targetPoint" />
            <Array as="points">
              <mxPoint x="-210" y="140" />
            </Array>
          </mxGeometry>
        </mxCell>
        <mxCell id="E6vCA-_C3BI9IP7vn3Sj-322" value="" style="rounded=0;whiteSpace=wrap;html=1;strokeWidth=2;" vertex="1" parent="1">
          <mxGeometry x="-120" y="120" width="60" height="80" as="geometry" />
        </mxCell>
        <mxCell id="E6vCA-_C3BI9IP7vn3Sj-323" value="&lt;font style=&quot;font-size: 10px;&quot; face=&quot;Times New Roman&quot;&gt;&lt;b style=&quot;&quot;&gt;D&lt;/b&gt;&lt;/font&gt;" style="text;html=1;align=center;verticalAlign=middle;whiteSpace=wrap;rounded=0;strokeWidth=2;" vertex="1" parent="1">
          <mxGeometry x="-120" y="135" width="10" height="10" as="geometry" />
        </mxCell>
        <mxCell id="E6vCA-_C3BI9IP7vn3Sj-324" value="&lt;font style=&quot;font-size: 10px;&quot; face=&quot;Times New Roman&quot;&gt;&lt;b style=&quot;&quot;&gt;Q&lt;/b&gt;&lt;/font&gt;" style="text;html=1;align=center;verticalAlign=middle;whiteSpace=wrap;rounded=0;strokeWidth=2;" vertex="1" parent="1">
          <mxGeometry x="-70" y="135" width="10" height="10" as="geometry" />
        </mxCell>
        <mxCell id="E6vCA-_C3BI9IP7vn3Sj-325" value="&lt;font style=&quot;font-size: 8px;&quot; face=&quot;Times New Roman&quot;&gt;&lt;b style=&quot;&quot;&gt;CLK&lt;/b&gt;&lt;/font&gt;" style="text;html=1;align=center;verticalAlign=middle;whiteSpace=wrap;rounded=0;strokeWidth=2;" vertex="1" parent="1">
          <mxGeometry x="-110" y="180" width="20" height="10" as="geometry" />
        </mxCell>
        <mxCell id="E6vCA-_C3BI9IP7vn3Sj-326" value="" style="endArrow=none;html=1;rounded=0;exitX=1;exitY=0.25;exitDx=0;exitDy=0;strokeWidth=2;" edge="1" parent="1">
          <mxGeometry width="50" height="50" relative="1" as="geometry">
            <mxPoint x="-130" y="180" as="sourcePoint" />
            <mxPoint x="-120" y="180" as="targetPoint" />
          </mxGeometry>
        </mxCell>
        <mxCell id="E6vCA-_C3BI9IP7vn3Sj-327" value="" style="triangle;whiteSpace=wrap;html=1;strokeWidth=2;" vertex="1" parent="1">
          <mxGeometry x="-120" y="170" width="10" height="20" as="geometry" />
        </mxCell>
        <mxCell id="E6vCA-_C3BI9IP7vn3Sj-328" value="" style="rounded=0;whiteSpace=wrap;html=1;strokeWidth=2;" vertex="1" parent="1">
          <mxGeometry x="-40" y="120" width="60" height="80" as="geometry" />
        </mxCell>
        <mxCell id="E6vCA-_C3BI9IP7vn3Sj-329" value="&lt;font style=&quot;font-size: 10px;&quot; face=&quot;Times New Roman&quot;&gt;&lt;b style=&quot;&quot;&gt;D&lt;/b&gt;&lt;/font&gt;" style="text;html=1;align=center;verticalAlign=middle;whiteSpace=wrap;rounded=0;strokeWidth=2;" vertex="1" parent="1">
          <mxGeometry x="-40" y="135" width="10" height="10" as="geometry" />
        </mxCell>
        <mxCell id="E6vCA-_C3BI9IP7vn3Sj-330" value="&lt;font style=&quot;font-size: 10px;&quot; face=&quot;Times New Roman&quot;&gt;&lt;b style=&quot;&quot;&gt;Q&lt;/b&gt;&lt;/font&gt;" style="text;html=1;align=center;verticalAlign=middle;whiteSpace=wrap;rounded=0;strokeWidth=2;" vertex="1" parent="1">
          <mxGeometry x="10" y="135" width="10" height="10" as="geometry" />
        </mxCell>
        <mxCell id="E6vCA-_C3BI9IP7vn3Sj-331" value="&lt;font style=&quot;font-size: 8px;&quot; face=&quot;Times New Roman&quot;&gt;&lt;b style=&quot;&quot;&gt;CLK&lt;/b&gt;&lt;/font&gt;" style="text;html=1;align=center;verticalAlign=middle;whiteSpace=wrap;rounded=0;strokeWidth=2;" vertex="1" parent="1">
          <mxGeometry x="-30" y="180" width="20" height="10" as="geometry" />
        </mxCell>
        <mxCell id="E6vCA-_C3BI9IP7vn3Sj-332" value="" style="endArrow=none;html=1;rounded=0;exitX=1;exitY=0.25;exitDx=0;exitDy=0;strokeWidth=2;" edge="1" parent="1">
          <mxGeometry width="50" height="50" relative="1" as="geometry">
            <mxPoint x="-50" y="179.77" as="sourcePoint" />
            <mxPoint x="-40" y="179.77" as="targetPoint" />
          </mxGeometry>
        </mxCell>
        <mxCell id="E6vCA-_C3BI9IP7vn3Sj-333" value="" style="triangle;whiteSpace=wrap;html=1;strokeWidth=2;" vertex="1" parent="1">
          <mxGeometry x="-40" y="170" width="10" height="20" as="geometry" />
        </mxCell>
        <mxCell id="E6vCA-_C3BI9IP7vn3Sj-334" value="" style="endArrow=none;html=1;rounded=0;entryX=0;entryY=0.5;entryDx=0;entryDy=0;strokeWidth=2;" edge="1" parent="1" target="E6vCA-_C3BI9IP7vn3Sj-329">
          <mxGeometry width="50" height="50" relative="1" as="geometry">
            <mxPoint x="-60" y="140" as="sourcePoint" />
            <mxPoint x="10" y="130" as="targetPoint" />
          </mxGeometry>
        </mxCell>
        <mxCell id="E6vCA-_C3BI9IP7vn3Sj-335" value="" style="endArrow=none;html=1;rounded=0;entryX=0;entryY=0.5;entryDx=0;entryDy=0;strokeWidth=2;" edge="1" parent="1">
          <mxGeometry width="50" height="50" relative="1" as="geometry">
            <mxPoint x="-140" y="139.88" as="sourcePoint" />
            <mxPoint x="-120" y="139.88" as="targetPoint" />
            <Array as="points">
              <mxPoint x="-130" y="139.88" />
            </Array>
          </mxGeometry>
        </mxCell>
        <mxCell id="E6vCA-_C3BI9IP7vn3Sj-336" value="&lt;font style=&quot;font-size: 8px;&quot; face=&quot;Times New Roman&quot;&gt;&lt;b style=&quot;&quot;&gt;CLK&lt;/b&gt;&lt;/font&gt;" style="text;html=1;align=center;verticalAlign=middle;whiteSpace=wrap;rounded=0;strokeWidth=2;" vertex="1" parent="1">
          <mxGeometry x="-750" y="260" width="20" height="10" as="geometry" />
        </mxCell>
        <mxCell id="E6vCA-_C3BI9IP7vn3Sj-337" value="" style="endArrow=none;html=1;rounded=0;exitX=1;exitY=0.25;exitDx=0;exitDy=0;strokeWidth=2;" edge="1" parent="1">
          <mxGeometry width="50" height="50" relative="1" as="geometry">
            <mxPoint x="-770" y="260" as="sourcePoint" />
            <mxPoint x="-760" y="260" as="targetPoint" />
          </mxGeometry>
        </mxCell>
        <mxCell id="E6vCA-_C3BI9IP7vn3Sj-338" value="" style="triangle;whiteSpace=wrap;html=1;strokeWidth=2;" vertex="1" parent="1">
          <mxGeometry x="-760" y="250" width="10" height="20" as="geometry" />
        </mxCell>
        <mxCell id="E6vCA-_C3BI9IP7vn3Sj-339" value="" style="rounded=0;whiteSpace=wrap;html=1;strokeWidth=2;" vertex="1" parent="1">
          <mxGeometry x="-680" y="240" width="60" height="80" as="geometry" />
        </mxCell>
        <mxCell id="E6vCA-_C3BI9IP7vn3Sj-340" value="" style="endArrow=none;html=1;rounded=0;exitX=1;exitY=0.25;exitDx=0;exitDy=0;entryX=0;entryY=0.5;entryDx=0;entryDy=0;strokeWidth=2;" edge="1" parent="1">
          <mxGeometry width="50" height="50" relative="1" as="geometry">
            <mxPoint x="-620" y="300" as="sourcePoint" />
            <mxPoint x="-600" y="300" as="targetPoint" />
          </mxGeometry>
        </mxCell>
        <mxCell id="E6vCA-_C3BI9IP7vn3Sj-342" value="&lt;font style=&quot;font-size: 10px;&quot; face=&quot;Times New Roman&quot;&gt;&lt;b style=&quot;&quot;&gt;D&lt;/b&gt;&lt;/font&gt;" style="text;html=1;align=center;verticalAlign=middle;whiteSpace=wrap;rounded=0;strokeWidth=2;" vertex="1" parent="1">
          <mxGeometry x="-680" y="300" width="10" height="10" as="geometry" />
        </mxCell>
        <mxCell id="E6vCA-_C3BI9IP7vn3Sj-343" value="&lt;font style=&quot;font-size: 10px;&quot; face=&quot;Times New Roman&quot;&gt;&lt;b style=&quot;&quot;&gt;Q&lt;/b&gt;&lt;/font&gt;" style="text;html=1;align=center;verticalAlign=middle;whiteSpace=wrap;rounded=0;strokeWidth=2;" vertex="1" parent="1">
          <mxGeometry x="-630" y="300" width="10" height="10" as="geometry" />
        </mxCell>
        <mxCell id="E6vCA-_C3BI9IP7vn3Sj-344" value="&lt;font style=&quot;font-size: 8px;&quot; face=&quot;Times New Roman&quot;&gt;&lt;b style=&quot;&quot;&gt;CLK&lt;/b&gt;&lt;/font&gt;" style="text;html=1;align=center;verticalAlign=middle;whiteSpace=wrap;rounded=0;strokeWidth=2;" vertex="1" parent="1">
          <mxGeometry x="-670" y="260" width="20" height="10" as="geometry" />
        </mxCell>
        <mxCell id="E6vCA-_C3BI9IP7vn3Sj-345" value="" style="endArrow=none;html=1;rounded=0;exitX=1;exitY=0.25;exitDx=0;exitDy=0;strokeWidth=2;" edge="1" parent="1">
          <mxGeometry width="50" height="50" relative="1" as="geometry">
            <mxPoint x="-690" y="260" as="sourcePoint" />
            <mxPoint x="-680" y="260" as="targetPoint" />
          </mxGeometry>
        </mxCell>
        <mxCell id="E6vCA-_C3BI9IP7vn3Sj-346" value="" style="triangle;whiteSpace=wrap;html=1;strokeWidth=2;" vertex="1" parent="1">
          <mxGeometry x="-680" y="250" width="10" height="20" as="geometry" />
        </mxCell>
        <mxCell id="E6vCA-_C3BI9IP7vn3Sj-348" value="" style="rounded=0;whiteSpace=wrap;html=1;strokeWidth=2;" vertex="1" parent="1">
          <mxGeometry x="-600" y="240" width="60" height="80" as="geometry" />
        </mxCell>
        <mxCell id="E6vCA-_C3BI9IP7vn3Sj-351" value="&lt;font style=&quot;font-size: 10px;&quot; face=&quot;Times New Roman&quot;&gt;&lt;b style=&quot;&quot;&gt;D&lt;/b&gt;&lt;/font&gt;" style="text;html=1;align=center;verticalAlign=middle;whiteSpace=wrap;rounded=0;strokeWidth=2;" vertex="1" parent="1">
          <mxGeometry x="-600" y="300" width="10" height="10" as="geometry" />
        </mxCell>
        <mxCell id="E6vCA-_C3BI9IP7vn3Sj-352" value="" style="edgeStyle=orthogonalEdgeStyle;rounded=0;orthogonalLoop=1;jettySize=auto;html=1;strokeWidth=2;" edge="1" parent="1">
          <mxGeometry relative="1" as="geometry">
            <mxPoint x="-540" y="300" as="sourcePoint" />
            <mxPoint x="-500" y="265" as="targetPoint" />
          </mxGeometry>
        </mxCell>
        <mxCell id="E6vCA-_C3BI9IP7vn3Sj-353" value="&lt;font style=&quot;font-size: 10px;&quot; face=&quot;Times New Roman&quot;&gt;&lt;b style=&quot;&quot;&gt;Q&lt;/b&gt;&lt;/font&gt;" style="text;html=1;align=center;verticalAlign=middle;whiteSpace=wrap;rounded=0;strokeWidth=2;" vertex="1" parent="1">
          <mxGeometry x="-550" y="300" width="10" height="10" as="geometry" />
        </mxCell>
        <mxCell id="E6vCA-_C3BI9IP7vn3Sj-354" value="&lt;font style=&quot;font-size: 8px;&quot; face=&quot;Times New Roman&quot;&gt;&lt;b style=&quot;&quot;&gt;CLK&lt;/b&gt;&lt;/font&gt;" style="text;html=1;align=center;verticalAlign=middle;whiteSpace=wrap;rounded=0;strokeWidth=2;" vertex="1" parent="1">
          <mxGeometry x="-590" y="260" width="20" height="10" as="geometry" />
        </mxCell>
        <mxCell id="E6vCA-_C3BI9IP7vn3Sj-355" value="" style="endArrow=none;html=1;rounded=0;exitX=1;exitY=0.25;exitDx=0;exitDy=0;strokeWidth=2;" edge="1" parent="1">
          <mxGeometry width="50" height="50" relative="1" as="geometry">
            <mxPoint x="-610" y="260" as="sourcePoint" />
            <mxPoint x="-600" y="260" as="targetPoint" />
          </mxGeometry>
        </mxCell>
        <mxCell id="E6vCA-_C3BI9IP7vn3Sj-356" value="" style="triangle;whiteSpace=wrap;html=1;strokeWidth=2;" vertex="1" parent="1">
          <mxGeometry x="-600" y="250" width="10" height="20" as="geometry" />
        </mxCell>
        <mxCell id="E6vCA-_C3BI9IP7vn3Sj-357" value="" style="rounded=0;whiteSpace=wrap;html=1;strokeWidth=2;" vertex="1" parent="1">
          <mxGeometry x="-520" y="240" width="60" height="80" as="geometry" />
        </mxCell>
        <mxCell id="E6vCA-_C3BI9IP7vn3Sj-358" value="" style="endArrow=none;html=1;rounded=0;exitX=1;exitY=0.25;exitDx=0;exitDy=0;entryX=0;entryY=0.5;entryDx=0;entryDy=0;strokeWidth=2;" edge="1" parent="1">
          <mxGeometry width="50" height="50" relative="1" as="geometry">
            <mxPoint x="-460" y="300" as="sourcePoint" />
            <mxPoint x="-440" y="300" as="targetPoint" />
          </mxGeometry>
        </mxCell>
        <mxCell id="E6vCA-_C3BI9IP7vn3Sj-359" value="&lt;font style=&quot;font-size: 10px;&quot; face=&quot;Times New Roman&quot;&gt;&lt;b style=&quot;&quot;&gt;D&lt;/b&gt;&lt;/font&gt;" style="text;html=1;align=center;verticalAlign=middle;whiteSpace=wrap;rounded=0;strokeWidth=2;" vertex="1" parent="1">
          <mxGeometry x="-520" y="300" width="10" height="10" as="geometry" />
        </mxCell>
        <mxCell id="E6vCA-_C3BI9IP7vn3Sj-360" value="&lt;font style=&quot;font-size: 10px;&quot; face=&quot;Times New Roman&quot;&gt;&lt;b style=&quot;&quot;&gt;Q&lt;/b&gt;&lt;/font&gt;" style="text;html=1;align=center;verticalAlign=middle;whiteSpace=wrap;rounded=0;strokeWidth=2;" vertex="1" parent="1">
          <mxGeometry x="-470" y="300" width="10" height="10" as="geometry" />
        </mxCell>
        <mxCell id="E6vCA-_C3BI9IP7vn3Sj-361" value="&lt;font style=&quot;font-size: 8px;&quot; face=&quot;Times New Roman&quot;&gt;&lt;b style=&quot;&quot;&gt;CLK&lt;/b&gt;&lt;/font&gt;" style="text;html=1;align=center;verticalAlign=middle;whiteSpace=wrap;rounded=0;strokeWidth=2;" vertex="1" parent="1">
          <mxGeometry x="-510" y="260" width="20" height="10" as="geometry" />
        </mxCell>
        <mxCell id="E6vCA-_C3BI9IP7vn3Sj-362" value="" style="endArrow=none;html=1;rounded=0;exitX=1;exitY=0.25;exitDx=0;exitDy=0;strokeWidth=2;" edge="1" parent="1">
          <mxGeometry width="50" height="50" relative="1" as="geometry">
            <mxPoint x="-530" y="260" as="sourcePoint" />
            <mxPoint x="-520" y="260" as="targetPoint" />
          </mxGeometry>
        </mxCell>
        <mxCell id="E6vCA-_C3BI9IP7vn3Sj-363" value="" style="triangle;whiteSpace=wrap;html=1;strokeWidth=2;" vertex="1" parent="1">
          <mxGeometry x="-520" y="250" width="10" height="20" as="geometry" />
        </mxCell>
        <mxCell id="E6vCA-_C3BI9IP7vn3Sj-364" value="" style="rounded=0;whiteSpace=wrap;html=1;strokeWidth=2;" vertex="1" parent="1">
          <mxGeometry x="-440" y="240" width="60" height="80" as="geometry" />
        </mxCell>
        <mxCell id="E6vCA-_C3BI9IP7vn3Sj-367" value="&lt;font style=&quot;font-size: 10px;&quot; face=&quot;Times New Roman&quot;&gt;&lt;b style=&quot;&quot;&gt;D&lt;/b&gt;&lt;/font&gt;" style="text;html=1;align=center;verticalAlign=middle;whiteSpace=wrap;rounded=0;strokeWidth=2;" vertex="1" parent="1">
          <mxGeometry x="-440" y="300" width="10" height="10" as="geometry" />
        </mxCell>
        <mxCell id="E6vCA-_C3BI9IP7vn3Sj-368" value="" style="edgeStyle=orthogonalEdgeStyle;rounded=0;orthogonalLoop=1;jettySize=auto;html=1;strokeWidth=2;" edge="1" parent="1">
          <mxGeometry relative="1" as="geometry">
            <mxPoint x="-380" y="300" as="sourcePoint" />
            <mxPoint x="-340" y="265" as="targetPoint" />
          </mxGeometry>
        </mxCell>
        <mxCell id="E6vCA-_C3BI9IP7vn3Sj-369" value="&lt;font style=&quot;font-size: 10px;&quot; face=&quot;Times New Roman&quot;&gt;&lt;b style=&quot;&quot;&gt;Q&lt;/b&gt;&lt;/font&gt;" style="text;html=1;align=center;verticalAlign=middle;whiteSpace=wrap;rounded=0;strokeWidth=2;" vertex="1" parent="1">
          <mxGeometry x="-390" y="300" width="10" height="10" as="geometry" />
        </mxCell>
        <mxCell id="E6vCA-_C3BI9IP7vn3Sj-370" value="&lt;font style=&quot;font-size: 8px;&quot; face=&quot;Times New Roman&quot;&gt;&lt;b style=&quot;&quot;&gt;CLK&lt;/b&gt;&lt;/font&gt;" style="text;html=1;align=center;verticalAlign=middle;whiteSpace=wrap;rounded=0;strokeWidth=2;" vertex="1" parent="1">
          <mxGeometry x="-430" y="260" width="20" height="10" as="geometry" />
        </mxCell>
        <mxCell id="E6vCA-_C3BI9IP7vn3Sj-371" value="" style="endArrow=none;html=1;rounded=0;exitX=1;exitY=0.25;exitDx=0;exitDy=0;strokeWidth=2;" edge="1" parent="1">
          <mxGeometry width="50" height="50" relative="1" as="geometry">
            <mxPoint x="-450" y="260" as="sourcePoint" />
            <mxPoint x="-440" y="260" as="targetPoint" />
          </mxGeometry>
        </mxCell>
        <mxCell id="E6vCA-_C3BI9IP7vn3Sj-372" value="" style="triangle;whiteSpace=wrap;html=1;strokeWidth=2;" vertex="1" parent="1">
          <mxGeometry x="-440" y="250" width="10" height="20" as="geometry" />
        </mxCell>
        <mxCell id="E6vCA-_C3BI9IP7vn3Sj-373" value="" style="rounded=0;whiteSpace=wrap;html=1;strokeWidth=2;" vertex="1" parent="1">
          <mxGeometry x="-360" y="240" width="60" height="80" as="geometry" />
        </mxCell>
        <mxCell id="E6vCA-_C3BI9IP7vn3Sj-374" value="" style="endArrow=none;html=1;rounded=0;exitX=1;exitY=0.25;exitDx=0;exitDy=0;entryX=0;entryY=0.5;entryDx=0;entryDy=0;strokeWidth=2;" edge="1" parent="1">
          <mxGeometry width="50" height="50" relative="1" as="geometry">
            <mxPoint x="-300" y="300" as="sourcePoint" />
            <mxPoint x="-280" y="300" as="targetPoint" />
          </mxGeometry>
        </mxCell>
        <mxCell id="E6vCA-_C3BI9IP7vn3Sj-375" value="&lt;font style=&quot;font-size: 10px;&quot; face=&quot;Times New Roman&quot;&gt;&lt;b style=&quot;&quot;&gt;D&lt;/b&gt;&lt;/font&gt;" style="text;html=1;align=center;verticalAlign=middle;whiteSpace=wrap;rounded=0;strokeWidth=2;" vertex="1" parent="1">
          <mxGeometry x="-360" y="300" width="10" height="10" as="geometry" />
        </mxCell>
        <mxCell id="E6vCA-_C3BI9IP7vn3Sj-376" value="&lt;font style=&quot;font-size: 10px;&quot; face=&quot;Times New Roman&quot;&gt;&lt;b style=&quot;&quot;&gt;Q&lt;/b&gt;&lt;/font&gt;" style="text;html=1;align=center;verticalAlign=middle;whiteSpace=wrap;rounded=0;strokeWidth=2;" vertex="1" parent="1">
          <mxGeometry x="-310" y="300" width="10" height="10" as="geometry" />
        </mxCell>
        <mxCell id="E6vCA-_C3BI9IP7vn3Sj-377" value="&lt;font style=&quot;font-size: 8px;&quot; face=&quot;Times New Roman&quot;&gt;&lt;b style=&quot;&quot;&gt;CLK&lt;/b&gt;&lt;/font&gt;" style="text;html=1;align=center;verticalAlign=middle;whiteSpace=wrap;rounded=0;strokeWidth=2;" vertex="1" parent="1">
          <mxGeometry x="-350" y="260" width="20" height="10" as="geometry" />
        </mxCell>
        <mxCell id="E6vCA-_C3BI9IP7vn3Sj-378" value="" style="endArrow=none;html=1;rounded=0;exitX=1;exitY=0.25;exitDx=0;exitDy=0;strokeWidth=2;" edge="1" parent="1">
          <mxGeometry width="50" height="50" relative="1" as="geometry">
            <mxPoint x="-370" y="260" as="sourcePoint" />
            <mxPoint x="-360" y="260" as="targetPoint" />
          </mxGeometry>
        </mxCell>
        <mxCell id="E6vCA-_C3BI9IP7vn3Sj-379" value="" style="triangle;whiteSpace=wrap;html=1;strokeWidth=2;" vertex="1" parent="1">
          <mxGeometry x="-360" y="250" width="10" height="20" as="geometry" />
        </mxCell>
        <mxCell id="E6vCA-_C3BI9IP7vn3Sj-380" value="" style="rounded=0;whiteSpace=wrap;html=1;strokeWidth=2;" vertex="1" parent="1">
          <mxGeometry x="-280" y="240" width="60" height="80" as="geometry" />
        </mxCell>
        <mxCell id="E6vCA-_C3BI9IP7vn3Sj-382" value="&lt;font style=&quot;font-size: 10px;&quot; face=&quot;Times New Roman&quot;&gt;&lt;b style=&quot;&quot;&gt;D&lt;/b&gt;&lt;/font&gt;" style="text;html=1;align=center;verticalAlign=middle;whiteSpace=wrap;rounded=0;strokeWidth=2;" vertex="1" parent="1">
          <mxGeometry x="-280" y="300" width="10" height="10" as="geometry" />
        </mxCell>
        <mxCell id="E6vCA-_C3BI9IP7vn3Sj-383" value="" style="edgeStyle=orthogonalEdgeStyle;rounded=0;orthogonalLoop=1;jettySize=auto;html=1;strokeWidth=2;" edge="1" parent="1">
          <mxGeometry relative="1" as="geometry">
            <mxPoint x="-220" y="300" as="sourcePoint" />
            <mxPoint x="-180" y="265" as="targetPoint" />
          </mxGeometry>
        </mxCell>
        <mxCell id="E6vCA-_C3BI9IP7vn3Sj-384" value="&lt;font style=&quot;font-size: 10px;&quot; face=&quot;Times New Roman&quot;&gt;&lt;b style=&quot;&quot;&gt;Q&lt;/b&gt;&lt;/font&gt;" style="text;html=1;align=center;verticalAlign=middle;whiteSpace=wrap;rounded=0;strokeWidth=2;" vertex="1" parent="1">
          <mxGeometry x="-230" y="300" width="10" height="10" as="geometry" />
        </mxCell>
        <mxCell id="E6vCA-_C3BI9IP7vn3Sj-385" value="&lt;font style=&quot;font-size: 8px;&quot; face=&quot;Times New Roman&quot;&gt;&lt;b style=&quot;&quot;&gt;CLK&lt;/b&gt;&lt;/font&gt;" style="text;html=1;align=center;verticalAlign=middle;whiteSpace=wrap;rounded=0;strokeWidth=2;" vertex="1" parent="1">
          <mxGeometry x="-270" y="260" width="20" height="10" as="geometry" />
        </mxCell>
        <mxCell id="E6vCA-_C3BI9IP7vn3Sj-386" value="" style="endArrow=none;html=1;rounded=0;exitX=1;exitY=0.25;exitDx=0;exitDy=0;strokeWidth=2;" edge="1" parent="1">
          <mxGeometry width="50" height="50" relative="1" as="geometry">
            <mxPoint x="-290" y="260" as="sourcePoint" />
            <mxPoint x="-280" y="260" as="targetPoint" />
          </mxGeometry>
        </mxCell>
        <mxCell id="E6vCA-_C3BI9IP7vn3Sj-387" value="" style="triangle;whiteSpace=wrap;html=1;strokeWidth=2;" vertex="1" parent="1">
          <mxGeometry x="-280" y="250" width="10" height="20" as="geometry" />
        </mxCell>
        <mxCell id="E6vCA-_C3BI9IP7vn3Sj-388" value="" style="rounded=0;whiteSpace=wrap;html=1;strokeWidth=2;" vertex="1" parent="1">
          <mxGeometry x="-200" y="240" width="60" height="80" as="geometry" />
        </mxCell>
        <mxCell id="E6vCA-_C3BI9IP7vn3Sj-389" value="" style="endArrow=none;html=1;rounded=0;exitX=1;exitY=0.25;exitDx=0;exitDy=0;entryX=0;entryY=0.5;entryDx=0;entryDy=0;strokeWidth=2;" edge="1" parent="1">
          <mxGeometry width="50" height="50" relative="1" as="geometry">
            <mxPoint x="-140" y="300" as="sourcePoint" />
            <mxPoint x="-120" y="300" as="targetPoint" />
          </mxGeometry>
        </mxCell>
        <mxCell id="E6vCA-_C3BI9IP7vn3Sj-390" value="&lt;font style=&quot;font-size: 10px;&quot; face=&quot;Times New Roman&quot;&gt;&lt;b style=&quot;&quot;&gt;D&lt;/b&gt;&lt;/font&gt;" style="text;html=1;align=center;verticalAlign=middle;whiteSpace=wrap;rounded=0;strokeWidth=2;" vertex="1" parent="1">
          <mxGeometry x="-200" y="300" width="10" height="10" as="geometry" />
        </mxCell>
        <mxCell id="E6vCA-_C3BI9IP7vn3Sj-391" value="&lt;font style=&quot;font-size: 10px;&quot; face=&quot;Times New Roman&quot;&gt;&lt;b style=&quot;&quot;&gt;Q&lt;/b&gt;&lt;/font&gt;" style="text;html=1;align=center;verticalAlign=middle;whiteSpace=wrap;rounded=0;strokeWidth=2;" vertex="1" parent="1">
          <mxGeometry x="-150" y="300" width="10" height="10" as="geometry" />
        </mxCell>
        <mxCell id="E6vCA-_C3BI9IP7vn3Sj-392" value="&lt;font style=&quot;font-size: 8px;&quot; face=&quot;Times New Roman&quot;&gt;&lt;b style=&quot;&quot;&gt;CLK&lt;/b&gt;&lt;/font&gt;" style="text;html=1;align=center;verticalAlign=middle;whiteSpace=wrap;rounded=0;strokeWidth=2;" vertex="1" parent="1">
          <mxGeometry x="-190" y="260" width="20" height="10" as="geometry" />
        </mxCell>
        <mxCell id="E6vCA-_C3BI9IP7vn3Sj-393" value="" style="endArrow=none;html=1;rounded=0;exitX=1;exitY=0.25;exitDx=0;exitDy=0;strokeWidth=2;" edge="1" parent="1">
          <mxGeometry width="50" height="50" relative="1" as="geometry">
            <mxPoint x="-210" y="260" as="sourcePoint" />
            <mxPoint x="-200" y="260" as="targetPoint" />
          </mxGeometry>
        </mxCell>
        <mxCell id="E6vCA-_C3BI9IP7vn3Sj-394" value="" style="triangle;whiteSpace=wrap;html=1;strokeWidth=2;" vertex="1" parent="1">
          <mxGeometry x="-200" y="250" width="10" height="20" as="geometry" />
        </mxCell>
        <mxCell id="E6vCA-_C3BI9IP7vn3Sj-395" value="" style="rounded=0;whiteSpace=wrap;html=1;strokeWidth=2;" vertex="1" parent="1">
          <mxGeometry x="-120" y="240" width="60" height="80" as="geometry" />
        </mxCell>
        <mxCell id="E6vCA-_C3BI9IP7vn3Sj-397" value="&lt;font style=&quot;font-size: 10px;&quot; face=&quot;Times New Roman&quot;&gt;&lt;b style=&quot;&quot;&gt;D&lt;/b&gt;&lt;/font&gt;" style="text;html=1;align=center;verticalAlign=middle;whiteSpace=wrap;rounded=0;strokeWidth=2;" vertex="1" parent="1">
          <mxGeometry x="-120" y="300" width="10" height="10" as="geometry" />
        </mxCell>
        <mxCell id="E6vCA-_C3BI9IP7vn3Sj-398" value="" style="edgeStyle=orthogonalEdgeStyle;rounded=0;orthogonalLoop=1;jettySize=auto;html=1;strokeWidth=2;" edge="1" parent="1">
          <mxGeometry relative="1" as="geometry">
            <mxPoint x="-60" y="299.5" as="sourcePoint" />
            <mxPoint x="-20" y="264.5" as="targetPoint" />
          </mxGeometry>
        </mxCell>
        <mxCell id="E6vCA-_C3BI9IP7vn3Sj-399" value="&lt;font style=&quot;font-size: 10px;&quot; face=&quot;Times New Roman&quot;&gt;&lt;b style=&quot;&quot;&gt;Q&lt;/b&gt;&lt;/font&gt;" style="text;html=1;align=center;verticalAlign=middle;whiteSpace=wrap;rounded=0;strokeWidth=2;" vertex="1" parent="1">
          <mxGeometry x="-70" y="300" width="10" height="10" as="geometry" />
        </mxCell>
        <mxCell id="E6vCA-_C3BI9IP7vn3Sj-400" value="&lt;font style=&quot;font-size: 8px;&quot; face=&quot;Times New Roman&quot;&gt;&lt;b style=&quot;&quot;&gt;CLK&lt;/b&gt;&lt;/font&gt;" style="text;html=1;align=center;verticalAlign=middle;whiteSpace=wrap;rounded=0;strokeWidth=2;" vertex="1" parent="1">
          <mxGeometry x="-110" y="260" width="20" height="10" as="geometry" />
        </mxCell>
        <mxCell id="E6vCA-_C3BI9IP7vn3Sj-401" value="" style="endArrow=none;html=1;rounded=0;exitX=1;exitY=0.25;exitDx=0;exitDy=0;strokeWidth=2;" edge="1" parent="1">
          <mxGeometry width="50" height="50" relative="1" as="geometry">
            <mxPoint x="-130" y="260" as="sourcePoint" />
            <mxPoint x="-120" y="260" as="targetPoint" />
          </mxGeometry>
        </mxCell>
        <mxCell id="E6vCA-_C3BI9IP7vn3Sj-402" value="" style="triangle;whiteSpace=wrap;html=1;strokeWidth=2;" vertex="1" parent="1">
          <mxGeometry x="-120" y="250" width="10" height="20" as="geometry" />
        </mxCell>
        <mxCell id="E6vCA-_C3BI9IP7vn3Sj-403" value="" style="rounded=0;whiteSpace=wrap;html=1;strokeWidth=2;" vertex="1" parent="1">
          <mxGeometry x="-40" y="240" width="60" height="80" as="geometry" />
        </mxCell>
        <mxCell id="E6vCA-_C3BI9IP7vn3Sj-404" value="" style="endArrow=none;html=1;rounded=0;exitX=1;exitY=0.25;exitDx=0;exitDy=0;strokeWidth=2;" edge="1" parent="1">
          <mxGeometry width="50" height="50" relative="1" as="geometry">
            <mxPoint x="20" y="300" as="sourcePoint" />
            <mxPoint x="30" y="300" as="targetPoint" />
          </mxGeometry>
        </mxCell>
        <mxCell id="E6vCA-_C3BI9IP7vn3Sj-405" value="&lt;font style=&quot;font-size: 10px;&quot; face=&quot;Times New Roman&quot;&gt;&lt;b style=&quot;&quot;&gt;D&lt;/b&gt;&lt;/font&gt;" style="text;html=1;align=center;verticalAlign=middle;whiteSpace=wrap;rounded=0;strokeWidth=2;" vertex="1" parent="1">
          <mxGeometry x="-40" y="300" width="10" height="10" as="geometry" />
        </mxCell>
        <mxCell id="E6vCA-_C3BI9IP7vn3Sj-406" value="&lt;font style=&quot;font-size: 10px;&quot; face=&quot;Times New Roman&quot;&gt;&lt;b style=&quot;&quot;&gt;Q&lt;/b&gt;&lt;/font&gt;" style="text;html=1;align=center;verticalAlign=middle;whiteSpace=wrap;rounded=0;strokeWidth=2;" vertex="1" parent="1">
          <mxGeometry x="10" y="300" width="10" height="10" as="geometry" />
        </mxCell>
        <mxCell id="E6vCA-_C3BI9IP7vn3Sj-407" value="&lt;font style=&quot;font-size: 8px;&quot; face=&quot;Times New Roman&quot;&gt;&lt;b style=&quot;&quot;&gt;CLK&lt;/b&gt;&lt;/font&gt;" style="text;html=1;align=center;verticalAlign=middle;whiteSpace=wrap;rounded=0;strokeWidth=2;" vertex="1" parent="1">
          <mxGeometry x="-30" y="260" width="20" height="10" as="geometry" />
        </mxCell>
        <mxCell id="E6vCA-_C3BI9IP7vn3Sj-408" value="" style="endArrow=none;html=1;rounded=0;exitX=1;exitY=0.25;exitDx=0;exitDy=0;strokeWidth=2;" edge="1" parent="1">
          <mxGeometry width="50" height="50" relative="1" as="geometry">
            <mxPoint x="-50" y="260" as="sourcePoint" />
            <mxPoint x="-40" y="260" as="targetPoint" />
          </mxGeometry>
        </mxCell>
        <mxCell id="E6vCA-_C3BI9IP7vn3Sj-409" value="" style="triangle;whiteSpace=wrap;html=1;strokeWidth=2;" vertex="1" parent="1">
          <mxGeometry x="-40" y="250" width="10" height="20" as="geometry" />
        </mxCell>
        <mxCell id="E6vCA-_C3BI9IP7vn3Sj-410" value="" style="endArrow=none;html=1;rounded=0;exitX=1;exitY=0.25;exitDx=0;exitDy=0;strokeWidth=2;" edge="1" parent="1">
          <mxGeometry width="50" height="50" relative="1" as="geometry">
            <mxPoint x="20" y="139.92" as="sourcePoint" />
            <mxPoint x="30" y="139.92" as="targetPoint" />
          </mxGeometry>
        </mxCell>
        <mxCell id="E6vCA-_C3BI9IP7vn3Sj-412" value="" style="endArrow=none;html=1;rounded=0;strokeWidth=2;" edge="1" parent="1">
          <mxGeometry width="50" height="50" relative="1" as="geometry">
            <mxPoint x="-770" y="260" as="sourcePoint" />
            <mxPoint x="-770" y="180" as="targetPoint" />
          </mxGeometry>
        </mxCell>
        <mxCell id="E6vCA-_C3BI9IP7vn3Sj-413" value="" style="endArrow=none;html=1;rounded=0;strokeWidth=2;" edge="1" parent="1">
          <mxGeometry width="50" height="50" relative="1" as="geometry">
            <mxPoint x="-690" y="260" as="sourcePoint" />
            <mxPoint x="-690" y="180" as="targetPoint" />
          </mxGeometry>
        </mxCell>
        <mxCell id="E6vCA-_C3BI9IP7vn3Sj-414" value="" style="endArrow=none;html=1;rounded=0;strokeWidth=2;" edge="1" parent="1">
          <mxGeometry width="50" height="50" relative="1" as="geometry">
            <mxPoint x="-610" y="260" as="sourcePoint" />
            <mxPoint x="-610" y="180" as="targetPoint" />
          </mxGeometry>
        </mxCell>
        <mxCell id="E6vCA-_C3BI9IP7vn3Sj-415" value="" style="endArrow=none;html=1;rounded=0;strokeWidth=2;" edge="1" parent="1">
          <mxGeometry width="50" height="50" relative="1" as="geometry">
            <mxPoint x="-530" y="260" as="sourcePoint" />
            <mxPoint x="-530" y="180" as="targetPoint" />
          </mxGeometry>
        </mxCell>
        <mxCell id="E6vCA-_C3BI9IP7vn3Sj-416" value="" style="endArrow=none;html=1;rounded=0;strokeWidth=2;" edge="1" parent="1">
          <mxGeometry width="50" height="50" relative="1" as="geometry">
            <mxPoint x="-450" y="260" as="sourcePoint" />
            <mxPoint x="-450" y="180" as="targetPoint" />
          </mxGeometry>
        </mxCell>
        <mxCell id="E6vCA-_C3BI9IP7vn3Sj-417" value="" style="endArrow=none;html=1;rounded=0;strokeWidth=2;" edge="1" parent="1">
          <mxGeometry width="50" height="50" relative="1" as="geometry">
            <mxPoint x="-370" y="260" as="sourcePoint" />
            <mxPoint x="-370" y="180" as="targetPoint" />
          </mxGeometry>
        </mxCell>
        <mxCell id="E6vCA-_C3BI9IP7vn3Sj-418" value="" style="endArrow=none;html=1;rounded=0;strokeWidth=2;" edge="1" parent="1">
          <mxGeometry width="50" height="50" relative="1" as="geometry">
            <mxPoint x="-290" y="260" as="sourcePoint" />
            <mxPoint x="-290" y="180" as="targetPoint" />
          </mxGeometry>
        </mxCell>
        <mxCell id="E6vCA-_C3BI9IP7vn3Sj-419" value="" style="endArrow=none;html=1;rounded=0;strokeWidth=2;" edge="1" parent="1">
          <mxGeometry width="50" height="50" relative="1" as="geometry">
            <mxPoint x="-210" y="260" as="sourcePoint" />
            <mxPoint x="-210" y="180" as="targetPoint" />
          </mxGeometry>
        </mxCell>
        <mxCell id="E6vCA-_C3BI9IP7vn3Sj-420" value="" style="endArrow=none;html=1;rounded=0;strokeWidth=2;" edge="1" parent="1">
          <mxGeometry width="50" height="50" relative="1" as="geometry">
            <mxPoint x="-130" y="260" as="sourcePoint" />
            <mxPoint x="-130" y="180" as="targetPoint" />
          </mxGeometry>
        </mxCell>
        <mxCell id="E6vCA-_C3BI9IP7vn3Sj-421" value="" style="endArrow=none;html=1;rounded=0;strokeWidth=2;" edge="1" parent="1">
          <mxGeometry width="50" height="50" relative="1" as="geometry">
            <mxPoint x="-50" y="260" as="sourcePoint" />
            <mxPoint x="-50" y="180" as="targetPoint" />
          </mxGeometry>
        </mxCell>
        <mxCell id="E6vCA-_C3BI9IP7vn3Sj-422" value="" style="endArrow=none;html=1;rounded=0;strokeWidth=2;" edge="1" parent="1">
          <mxGeometry width="50" height="50" relative="1" as="geometry">
            <mxPoint x="-790" y="220" as="sourcePoint" />
            <mxPoint x="-48.666585286458336" y="220" as="targetPoint" />
          </mxGeometry>
        </mxCell>
        <mxCell id="E6vCA-_C3BI9IP7vn3Sj-427" value="" style="verticalLabelPosition=bottom;shadow=0;dashed=0;align=center;html=1;verticalAlign=top;shape=mxgraph.electrical.logic_gates.logic_gate;operation=xor;rotation=-180;strokeWidth=2;" vertex="1" parent="1">
          <mxGeometry x="-710" y="330" width="65" height="40" as="geometry" />
        </mxCell>
        <mxCell id="E6vCA-_C3BI9IP7vn3Sj-430" value="" style="endArrow=none;html=1;rounded=0;strokeWidth=2;exitX=1;exitY=0.5;exitDx=0;exitDy=0;exitPerimeter=0;" edge="1" parent="1" source="E6vCA-_C3BI9IP7vn3Sj-427">
          <mxGeometry width="50" height="50" relative="1" as="geometry">
            <mxPoint x="-750" y="370" as="sourcePoint" />
            <mxPoint x="-770" y="300" as="targetPoint" />
            <Array as="points">
              <mxPoint x="-780" y="350" />
              <mxPoint x="-780" y="300" />
            </Array>
          </mxGeometry>
        </mxCell>
        <mxCell id="E6vCA-_C3BI9IP7vn3Sj-432" value="" style="verticalLabelPosition=bottom;shadow=0;dashed=0;align=center;html=1;verticalAlign=top;shape=mxgraph.electrical.logic_gates.logic_gate;operation=xor;rotation=-180;strokeWidth=2;" vertex="1" parent="1">
          <mxGeometry x="-612.5" y="340" width="65" height="40" as="geometry" />
        </mxCell>
        <mxCell id="E6vCA-_C3BI9IP7vn3Sj-433" value="" style="verticalLabelPosition=bottom;shadow=0;dashed=0;align=center;html=1;verticalAlign=top;shape=mxgraph.electrical.logic_gates.logic_gate;operation=xor;rotation=-180;strokeWidth=2;" vertex="1" parent="1">
          <mxGeometry x="-720" y="70" width="65" height="40" as="geometry" />
        </mxCell>
        <mxCell id="E6vCA-_C3BI9IP7vn3Sj-434" value="" style="endArrow=none;html=1;rounded=0;exitX=0;exitY=0.25;exitDx=0;exitDy=0;exitPerimeter=0;strokeWidth=2;" edge="1" parent="1" source="E6vCA-_C3BI9IP7vn3Sj-433">
          <mxGeometry width="50" height="50" relative="1" as="geometry">
            <mxPoint x="-580" y="180" as="sourcePoint" />
            <mxPoint x="-530" y="140" as="targetPoint" />
            <Array as="points">
              <mxPoint x="-530" y="100" />
            </Array>
          </mxGeometry>
        </mxCell>
        <mxCell id="E6vCA-_C3BI9IP7vn3Sj-435" value="" style="endArrow=none;html=1;rounded=0;exitX=0;exitY=0.75;exitDx=0;exitDy=0;exitPerimeter=0;strokeWidth=2;" edge="1" parent="1" source="E6vCA-_C3BI9IP7vn3Sj-433">
          <mxGeometry width="50" height="50" relative="1" as="geometry">
            <mxPoint x="-580" y="180" as="sourcePoint" />
            <mxPoint x="40" y="140" as="targetPoint" />
            <Array as="points">
              <mxPoint x="40" y="80" />
            </Array>
          </mxGeometry>
        </mxCell>
        <mxCell id="E6vCA-_C3BI9IP7vn3Sj-436" value="" style="endArrow=none;html=1;rounded=0;entryX=1;entryY=0.5;entryDx=0;entryDy=0;entryPerimeter=0;strokeWidth=2;" edge="1" parent="1" target="E6vCA-_C3BI9IP7vn3Sj-433">
          <mxGeometry width="50" height="50" relative="1" as="geometry">
            <mxPoint x="-770" y="140" as="sourcePoint" />
            <mxPoint x="-480" y="130" as="targetPoint" />
            <Array as="points">
              <mxPoint x="-780" y="140" />
              <mxPoint x="-780" y="90" />
            </Array>
          </mxGeometry>
        </mxCell>
        <mxCell id="E6vCA-_C3BI9IP7vn3Sj-437" value="" style="endArrow=none;html=1;rounded=0;exitX=0;exitY=0.75;exitDx=0;exitDy=0;exitPerimeter=0;strokeWidth=2;" edge="1" parent="1" source="E6vCA-_C3BI9IP7vn3Sj-427">
          <mxGeometry width="50" height="50" relative="1" as="geometry">
            <mxPoint x="-600" y="370" as="sourcePoint" />
            <mxPoint x="-610" y="300" as="targetPoint" />
            <Array as="points">
              <mxPoint x="-610" y="340" />
            </Array>
          </mxGeometry>
        </mxCell>
        <mxCell id="E6vCA-_C3BI9IP7vn3Sj-438" value="" style="endArrow=none;html=1;rounded=0;exitX=0;exitY=0.25;exitDx=0;exitDy=0;exitPerimeter=0;entryX=1;entryY=0.5;entryDx=0;entryDy=0;entryPerimeter=0;strokeWidth=2;" edge="1" parent="1" source="E6vCA-_C3BI9IP7vn3Sj-427" target="E6vCA-_C3BI9IP7vn3Sj-432">
          <mxGeometry width="50" height="50" relative="1" as="geometry">
            <mxPoint x="-600" y="370" as="sourcePoint" />
            <mxPoint x="-550" y="320" as="targetPoint" />
          </mxGeometry>
        </mxCell>
        <mxCell id="E6vCA-_C3BI9IP7vn3Sj-439" value="" style="endArrow=none;html=1;rounded=0;exitX=0;exitY=0.75;exitDx=0;exitDy=0;exitPerimeter=0;strokeWidth=2;" edge="1" parent="1" source="E6vCA-_C3BI9IP7vn3Sj-432">
          <mxGeometry width="50" height="50" relative="1" as="geometry">
            <mxPoint x="-600" y="370" as="sourcePoint" />
            <mxPoint x="-530" y="300" as="targetPoint" />
            <Array as="points">
              <mxPoint x="-530" y="350" />
            </Array>
          </mxGeometry>
        </mxCell>
        <mxCell id="E6vCA-_C3BI9IP7vn3Sj-441" value="" style="verticalLabelPosition=bottom;shadow=0;dashed=0;align=center;html=1;verticalAlign=top;shape=mxgraph.electrical.logic_gates.logic_gate;operation=xor;rotation=-180;strokeWidth=2;" vertex="1" parent="1">
          <mxGeometry x="-375" y="350" width="65" height="40" as="geometry" />
        </mxCell>
        <mxCell id="E6vCA-_C3BI9IP7vn3Sj-442" value="" style="verticalLabelPosition=bottom;shadow=0;dashed=0;align=center;html=1;verticalAlign=top;shape=mxgraph.electrical.logic_gates.logic_gate;operation=xor;rotation=-180;strokeWidth=2;" vertex="1" parent="1">
          <mxGeometry x="-235" y="360" width="65" height="40" as="geometry" />
        </mxCell>
        <mxCell id="E6vCA-_C3BI9IP7vn3Sj-443" value="" style="verticalLabelPosition=bottom;shadow=0;dashed=0;align=center;html=1;verticalAlign=top;shape=mxgraph.electrical.logic_gates.logic_gate;operation=xor;rotation=-180;strokeWidth=2;" vertex="1" parent="1">
          <mxGeometry x="-135" y="370" width="65" height="40" as="geometry" />
        </mxCell>
        <mxCell id="E6vCA-_C3BI9IP7vn3Sj-445" value="" style="endArrow=none;html=1;rounded=0;exitX=0;exitY=0.75;exitDx=0;exitDy=0;exitPerimeter=0;strokeWidth=2;" edge="1" parent="1" source="E6vCA-_C3BI9IP7vn3Sj-443">
          <mxGeometry width="50" height="50" relative="1" as="geometry">
            <mxPoint x="-190" y="370" as="sourcePoint" />
            <mxPoint x="-50" y="300" as="targetPoint" />
            <Array as="points">
              <mxPoint x="-50" y="380" />
            </Array>
          </mxGeometry>
        </mxCell>
        <mxCell id="E6vCA-_C3BI9IP7vn3Sj-446" value="" style="endArrow=none;html=1;rounded=0;exitX=0;exitY=0.25;exitDx=0;exitDy=0;exitPerimeter=0;strokeWidth=2;" edge="1" parent="1" source="E6vCA-_C3BI9IP7vn3Sj-443">
          <mxGeometry width="50" height="50" relative="1" as="geometry">
            <mxPoint x="-190" y="370" as="sourcePoint" />
            <mxPoint x="30" y="300" as="targetPoint" />
            <Array as="points">
              <mxPoint x="30" y="400" />
            </Array>
          </mxGeometry>
        </mxCell>
        <mxCell id="E6vCA-_C3BI9IP7vn3Sj-447" value="" style="endArrow=none;html=1;rounded=0;exitX=0;exitY=0.75;exitDx=0;exitDy=0;exitPerimeter=0;strokeWidth=2;" edge="1" parent="1" source="E6vCA-_C3BI9IP7vn3Sj-442">
          <mxGeometry width="50" height="50" relative="1" as="geometry">
            <mxPoint x="-190" y="370" as="sourcePoint" />
            <mxPoint x="-130" y="300" as="targetPoint" />
            <Array as="points">
              <mxPoint x="-130" y="370" />
            </Array>
          </mxGeometry>
        </mxCell>
        <mxCell id="E6vCA-_C3BI9IP7vn3Sj-448" value="" style="endArrow=none;html=1;rounded=0;exitX=0;exitY=0.25;exitDx=0;exitDy=0;exitPerimeter=0;entryX=1;entryY=0.5;entryDx=0;entryDy=0;entryPerimeter=0;strokeWidth=2;" edge="1" parent="1" source="E6vCA-_C3BI9IP7vn3Sj-442" target="E6vCA-_C3BI9IP7vn3Sj-443">
          <mxGeometry width="50" height="50" relative="1" as="geometry">
            <mxPoint x="-190" y="370" as="sourcePoint" />
            <mxPoint x="-140" y="320" as="targetPoint" />
          </mxGeometry>
        </mxCell>
        <mxCell id="E6vCA-_C3BI9IP7vn3Sj-449" value="" style="endArrow=none;html=1;rounded=0;exitX=0;exitY=0.25;exitDx=0;exitDy=0;exitPerimeter=0;entryX=1;entryY=0.5;entryDx=0;entryDy=0;entryPerimeter=0;strokeWidth=2;" edge="1" parent="1" source="E6vCA-_C3BI9IP7vn3Sj-441" target="E6vCA-_C3BI9IP7vn3Sj-442">
          <mxGeometry width="50" height="50" relative="1" as="geometry">
            <mxPoint x="-190" y="370" as="sourcePoint" />
            <mxPoint x="-240" y="380" as="targetPoint" />
          </mxGeometry>
        </mxCell>
        <mxCell id="E6vCA-_C3BI9IP7vn3Sj-450" value="" style="endArrow=none;html=1;rounded=0;exitX=0;exitY=0.75;exitDx=0;exitDy=0;exitPerimeter=0;strokeWidth=2;" edge="1" parent="1" source="E6vCA-_C3BI9IP7vn3Sj-441">
          <mxGeometry width="50" height="50" relative="1" as="geometry">
            <mxPoint x="-190" y="370" as="sourcePoint" />
            <mxPoint x="-290" y="300" as="targetPoint" />
            <Array as="points">
              <mxPoint x="-290" y="360" />
            </Array>
          </mxGeometry>
        </mxCell>
        <mxCell id="E6vCA-_C3BI9IP7vn3Sj-451" value="" style="endArrow=none;html=1;rounded=0;exitX=0;exitY=0.25;exitDx=0;exitDy=0;exitPerimeter=0;entryX=1;entryY=0.5;entryDx=0;entryDy=0;entryPerimeter=0;strokeWidth=2;" edge="1" parent="1" source="E6vCA-_C3BI9IP7vn3Sj-432" target="E6vCA-_C3BI9IP7vn3Sj-441">
          <mxGeometry width="50" height="50" relative="1" as="geometry">
            <mxPoint x="-460" y="370" as="sourcePoint" />
            <mxPoint x="-410" y="320" as="targetPoint" />
          </mxGeometry>
        </mxCell>
        <mxCell id="E6vCA-_C3BI9IP7vn3Sj-452" value="" style="verticalLabelPosition=bottom;shadow=0;dashed=0;align=center;html=1;verticalAlign=top;shape=mxgraph.electrical.logic_gates.logic_gate;operation=xor;rotation=0;strokeWidth=2;" vertex="1" parent="1">
          <mxGeometry x="70" y="200" width="65" height="40" as="geometry" />
        </mxCell>
        <mxCell id="E6vCA-_C3BI9IP7vn3Sj-456" value="" style="shape=trapezoid;perimeter=trapezoidPerimeter;whiteSpace=wrap;html=1;fixedSize=1;strokeWidth=2;" vertex="1" parent="1">
          <mxGeometry x="30" y="260" width="80" height="30" as="geometry" />
        </mxCell>
        <mxCell id="E6vCA-_C3BI9IP7vn3Sj-457" value="" style="endArrow=none;html=1;rounded=0;entryX=0.25;entryY=1;entryDx=0;entryDy=0;strokeWidth=2;" edge="1" parent="1" target="E6vCA-_C3BI9IP7vn3Sj-456">
          <mxGeometry width="50" height="50" relative="1" as="geometry">
            <mxPoint x="30" y="300" as="sourcePoint" />
            <mxPoint x="-20" y="220" as="targetPoint" />
            <Array as="points">
              <mxPoint x="50" y="300" />
            </Array>
          </mxGeometry>
        </mxCell>
        <mxCell id="E6vCA-_C3BI9IP7vn3Sj-458" value="" style="endArrow=none;html=1;rounded=0;entryX=0;entryY=0.75;entryDx=0;entryDy=0;entryPerimeter=0;exitX=0.5;exitY=0;exitDx=0;exitDy=0;strokeWidth=2;" edge="1" parent="1" source="E6vCA-_C3BI9IP7vn3Sj-456" target="E6vCA-_C3BI9IP7vn3Sj-452">
          <mxGeometry width="50" height="50" relative="1" as="geometry">
            <mxPoint x="-70" y="320" as="sourcePoint" />
            <mxPoint x="-20" y="270" as="targetPoint" />
          </mxGeometry>
        </mxCell>
        <mxCell id="E6vCA-_C3BI9IP7vn3Sj-459" value="" style="endArrow=none;html=1;rounded=0;entryX=0;entryY=0.25;entryDx=0;entryDy=0;entryPerimeter=0;strokeWidth=2;" edge="1" parent="1" target="E6vCA-_C3BI9IP7vn3Sj-452">
          <mxGeometry width="50" height="50" relative="1" as="geometry">
            <mxPoint x="30" y="140" as="sourcePoint" />
            <mxPoint x="-20" y="170" as="targetPoint" />
            <Array as="points">
              <mxPoint x="70" y="140" />
            </Array>
          </mxGeometry>
        </mxCell>
        <mxCell id="E6vCA-_C3BI9IP7vn3Sj-460" value="" style="verticalLabelPosition=bottom;shadow=0;dashed=0;align=center;html=1;verticalAlign=top;shape=mxgraph.electrical.logic_gates.logic_gate;operation=xor;rotation=0;strokeWidth=2;" vertex="1" parent="1">
          <mxGeometry x="-55" y="410" width="65" height="40" as="geometry" />
        </mxCell>
        <mxCell id="E6vCA-_C3BI9IP7vn3Sj-462" value="" style="endArrow=none;html=1;rounded=0;exitX=0;exitY=0.25;exitDx=0;exitDy=0;exitPerimeter=0;strokeWidth=2;dashed=1;" edge="1" parent="1" source="E6vCA-_C3BI9IP7vn3Sj-460">
          <mxGeometry width="50" height="50" relative="1" as="geometry">
            <mxPoint x="-350" y="400" as="sourcePoint" />
            <mxPoint x="-130" y="370" as="targetPoint" />
            <Array as="points">
              <mxPoint x="-130" y="420" />
            </Array>
          </mxGeometry>
        </mxCell>
        <mxCell id="E6vCA-_C3BI9IP7vn3Sj-463" value="" style="endArrow=none;html=1;rounded=0;exitX=0;exitY=0.75;exitDx=0;exitDy=0;exitPerimeter=0;strokeWidth=2;dashed=1;" edge="1" parent="1" source="E6vCA-_C3BI9IP7vn3Sj-460">
          <mxGeometry width="50" height="50" relative="1" as="geometry">
            <mxPoint x="-350" y="400" as="sourcePoint" />
            <mxPoint x="-530" y="350" as="targetPoint" />
            <Array as="points">
              <mxPoint x="-530" y="440" />
            </Array>
          </mxGeometry>
        </mxCell>
        <mxCell id="E6vCA-_C3BI9IP7vn3Sj-464" value="" style="endArrow=none;html=1;rounded=0;entryX=0.75;entryY=1;entryDx=0;entryDy=0;exitX=1;exitY=0.5;exitDx=0;exitDy=0;exitPerimeter=0;strokeWidth=2;" edge="1" parent="1" source="E6vCA-_C3BI9IP7vn3Sj-460" target="E6vCA-_C3BI9IP7vn3Sj-456">
          <mxGeometry width="50" height="50" relative="1" as="geometry">
            <mxPoint x="-50" y="400" as="sourcePoint" />
            <mxPoint y="350" as="targetPoint" />
            <Array as="points">
              <mxPoint x="90" y="430" />
            </Array>
          </mxGeometry>
        </mxCell>
        <mxCell id="E6vCA-_C3BI9IP7vn3Sj-465" value="&lt;font face=&quot;Times New Roman&quot; style=&quot;font-size: 14px;&quot;&gt;&lt;b style=&quot;&quot;&gt;CLK&lt;/b&gt;&lt;/font&gt;&lt;div&gt;&lt;font face=&quot;PosiMBSulLkGbJZJdTOA&quot; size=&quot;3&quot; style=&quot;&quot;&gt;&lt;b style=&quot;&quot;&gt;1.023&amp;nbsp; MHz&lt;/b&gt;&lt;/font&gt;&lt;/div&gt;" style="text;html=1;align=center;verticalAlign=middle;whiteSpace=wrap;rounded=0;strokeWidth=2;" vertex="1" parent="1">
          <mxGeometry x="-860" y="205" width="83" height="30" as="geometry" />
        </mxCell>
        <mxCell id="E6vCA-_C3BI9IP7vn3Sj-466" value="&lt;font style=&quot;font-size: 14px;&quot; face=&quot;Times New Roman&quot;&gt;&lt;b&gt;CODE OUT&lt;/b&gt;&lt;/font&gt;" style="text;html=1;align=center;verticalAlign=middle;whiteSpace=wrap;rounded=0;" vertex="1" parent="1">
          <mxGeometry x="120" y="205" width="60" height="30" as="geometry" />
        </mxCell>
      </root>
    </mxGraphModel>
  </diagram>
</mxfile>
